<svg xmlns="http://www.w3.org/2000/svg" xmlns:xlink="http://www.w3.org/1999/xlink" width="512" zoomAndPan="magnify" viewBox="0 0 384 383.999986" height="512" preserveAspectRatio="xMidYMid meet" version="1.0"><path fill="#8b4513" d="M 68.75 276.363281 C 68.75 276.363281 72.628906 283.742188 81.25 278.015625 C 81.25 278.015625 137.226562 227.191406 138.660156 227.191406 C 138.660156 227.191406 132.105469 239.085938 146.640625 221.847656 C 146.640625 221.847656 137.226562 234.570312 158.726562 212.019531 C 158.726562 212.019531 155.640625 223.691406 162.832031 209.347656 C 162.832031 209.347656 172.46875 215.074219 174.089844 214.46875 C 174.089844 214.46875 170.210938 218.160156 173.070312 217.554688 C 173.070312 217.554688 173.898438 220.828125 176.953125 218.570312 C 176.953125 218.570312 178.191406 219.589844 177.144531 221.019531 C 177.144531 221.019531 175.296875 222.039062 176.125 224.710938 C 176.125 224.710938 181.597656 248.34375 175.488281 256.675781 C 175.363281 256.613281 175.234375 256.546875 175.109375 256.484375 C 171.449219 255.464844 167.792969 254.480469 164.101562 253.589844 C 161.242188 252.890625 158.378906 252.222656 155.484375 251.679688 C 154.019531 251.394531 149.3125 249.773438 148.007812 250.886719 C 147.277344 251.523438 148.039062 251.425781 148.105469 252.347656 C 148.230469 254.320312 148.328125 254.320312 147.5625 256.039062 C 145.304688 261.0625 148.835938 261 151.890625 263.578125 C 150.363281 263.832031 149.820312 265.390625 151.316406 266.375 C 148.484375 268.09375 145.433594 264.882812 142.761719 266.183594 C 143.144531 266.886719 144.511719 268.1875 145.335938 268.1875 C 143.523438 268.15625 141.011719 267.902344 139.390625 268.761719 C 141.585938 270.703125 146.164062 271.019531 148.929688 271.71875 C 153.257812 272.769531 157.582031 273.785156 161.910156 274.773438 C 163.085938 275.027344 164.292969 275.375 165.503906 275.535156 C 167.21875 275.789062 168.90625 276.078125 170.589844 276.425781 C 170.71875 276.679688 170.8125 276.933594 170.972656 277.222656 C 170.878906 277 170.78125 276.746094 170.75 276.457031 C 178.796875 278.046875 186.496094 280.5625 194.285156 283.457031 C 199.214844 285.300781 204.433594 286.890625 209.648438 287.621094 C 212.003906 287.941406 214.484375 288.132812 216.804688 287.429688 C 219.667969 286.574219 220.972656 284.25 224.152344 283.996094 C 227.617188 283.710938 231.117188 284.503906 234.585938 283.933594 C 238.019531 283.359375 238.402344 280.179688 241.488281 279.257812 C 244.445312 278.367188 247.402344 277.539062 250.359375 276.648438 C 252.90625 278.75 256.433594 280.242188 257.007812 274.519531 C 257.898438 274.199219 258.789062 273.882812 259.710938 273.5625 C 262.636719 275.089844 263.050781 273.53125 262.988281 272.292969 C 263.304688 272.164062 263.625 272.039062 263.941406 271.910156 C 268.839844 269.8125 273.355469 269.621094 278.605469 268.664062 C 281.464844 268.15625 283.789062 267.457031 286.300781 266.058594 C 288.464844 264.882812 290.753906 264.023438 293.105469 263.386719 C 295.683594 262.6875 304.683594 263.671875 302.648438 258.773438 C 301.410156 255.816406 296.605469 257.3125 293.996094 257.121094 C 286.585938 256.546875 305.035156 252.890625 298.324219 251.746094 C 296.890625 251.492188 293.363281 252.476562 292.4375 251.300781 C 291.484375 250.058594 292.917969 248.53125 293.550781 247.546875 C 291.707031 249.136719 288.878906 249.296875 286.554688 249.742188 C 285.21875 249.996094 283.945312 250.1875 282.738281 250.855469 C 281.941406 251.300781 280.988281 252.636719 280.128906 252.792969 C 278.636719 253.113281 279.015625 252.445312 279.652344 251.648438 C 279.75 251.523438 279.875 251.363281 280.003906 251.203125 C 281.050781 249.835938 283.945312 244.046875 286.171875 244.460938 C 281.847656 243.601562 276.632812 245.351562 272.5625 246.75 C 266.039062 249.011719 260.21875 252.445312 253.984375 255.339844 C 253.984375 255.339844 253.890625 255.371094 253.699219 255.464844 C 253.730469 255.433594 253.761719 255.371094 253.761719 255.339844 C 253.796875 255.277344 229.242188 241.089844 227.332031 239.945312 C 224.34375 238.132812 220.84375 236.445312 218.871094 233.394531 C 211.175781 221.433594 238.558594 217.109375 244.636719 214.375 C 256.945312 208.839844 268.109375 202.128906 277.300781 192.046875 C 286.90625 181.484375 291.324219 168.222656 290.339844 153.972656 C 292.949219 153.972656 295.398438 152.351562 296.636719 150 C 299.753906 150.125 302.648438 149.140625 303.15625 146.085938 C 304.113281 140.550781 297.910156 135.464844 293.074219 135.050781 C 292.28125 134.984375 291.546875 135.144531 290.878906 135.496094 C 291.292969 132.726562 291.835938 129.992188 292.566406 127.382812 C 294.15625 121.597656 296.765625 115.617188 300.359375 110.78125 C 304.429688 105.3125 310.058594 103.242188 316.675781 102.574219 C 318.425781 102.417969 320.207031 102.320312 321.988281 102.195312 C 321.320312 102.226562 319.09375 99.585938 318.359375 99.171875 C 316.960938 98.3125 315.371094 97.804688 313.78125 97.457031 C 306.148438 95.863281 298.640625 101.019531 290.976562 98.855469 C 283.3125 96.660156 274.53125 98.886719 267.789062 102.734375 C 260.285156 106.996094 256.753906 114.375 251.1875 120.546875 C 245.78125 126.558594 238.625 130.40625 230.769531 132.1875 C 227.683594 132.886719 225.074219 134.382812 223.007812 136.863281 C 217.949219 140.550781 211.714844 142.175781 205.832031 143.988281 C 200.933594 145.480469 196.097656 147.296875 191.328125 149.109375 C 180.101562 153.402344 169.03125 158.203125 158.378906 163.769531 C 150.234375 168.03125 142.632812 173.34375 134.300781 177.289062 C 131.246094 178.71875 128.226562 180.148438 125.234375 181.707031 C 123.964844 182.375 119.605469 184.03125 119.097656 185.558594 C 118.492188 187.339844 121.863281 186.417969 123.167969 186.257812 C 121.640625 187.050781 116.964844 189.023438 116.710938 191.058594 C 116.488281 193.03125 119.191406 192.492188 120.71875 192.585938 C 120.71875 192.585938 143.078125 194.019531 143.875 193.191406 C 143.875 193.191406 67.828125 272.101562 65.980469 275.375 C 66.109375 275.34375 62.007812 281.515625 68.75 276.363281 Z M 282.769531 253.429688 C 282.769531 253.429688 285.632812 252 286.046875 254.863281 C 286.460938 257.726562 285.441406 255.878906 283.597656 255.878906 C 281.753906 255.878906 274.375 261.191406 282.769531 253.429688 Z M 254.75 275.28125 C 254.8125 275.25 254.910156 275.25 254.972656 275.21875 C 254.910156 275.25 254.8125 275.28125 254.75 275.28125 Z M 236.078125 261.222656 C 237.035156 259.984375 238.59375 259.125 240.945312 258.964844 C 240.945312 258.964844 242.917969 258.902344 245.367188 258.550781 C 242.726562 259.410156 239.609375 260.363281 236.078125 261.222656 Z M 181.5 259.441406 C 182.007812 259.347656 182.519531 259.28125 183.058594 259.28125 C 187.671875 259.125 191.964844 261.414062 196.097656 263.101562 C 197.402344 263.640625 197.914062 264.214844 197.625 262.273438 C 197.308594 260.269531 193.363281 257.980469 191.871094 256.929688 C 190.121094 255.6875 188.878906 254.511719 187.734375 252.699219 C 184.746094 248.054688 183.089844 243.570312 182.519531 238.035156 C 182.390625 236.890625 182.898438 225.664062 183.15625 225.761719 C 183.15625 225.761719 185.605469 226.777344 186.652344 221.464844 C 186.652344 221.464844 187.417969 230.878906 188.210938 221.242188 C 188.242188 220.925781 188.273438 220.605469 188.273438 220.226562 C 188.273438 220.226562 191.136719 216.949219 191.136719 219.621094 C 191.136719 219.621094 189.292969 222.707031 194.222656 221.65625 C 194.222656 221.65625 188.496094 227.796875 197.914062 223.691406 C 197.914062 223.691406 196.480469 229.417969 201.410156 224.105469 C 201.410156 224.105469 201.0625 232.726562 202.460938 226.332031 C 202.015625 228.875 201.761719 232.789062 205.292969 228.84375 C 203.921875 230.402344 205.101562 233.871094 206.054688 235.269531 C 208.632812 239.117188 214.070312 239.691406 218.046875 241.3125 C 225.265625 244.269531 233.949219 247.960938 239.960938 253.050781 C 239.960938 253.050781 244.253906 256.738281 238.71875 255.910156 C 238.71875 255.910156 229.972656 254.734375 230.703125 262.464844 C 216.773438 265.199219 198.546875 266.28125 181.5 259.441406 Z M 181.5 259.441406 " fill-opacity="1" fill-rule="nonzero"/></svg>