<svg xmlns="http://www.w3.org/2000/svg" xmlns:xlink="http://www.w3.org/1999/xlink" width="1024" zoomAndPan="magnify" viewBox="0 0 768 767.999994" height="1024" preserveAspectRatio="xMidYMid meet" version="1.0"><defs><clipPath id="71e960c125"><path d="M 41 128 L 734.0625 128 L 734.0625 643 L 41 643 Z M 41 128 " clip-rule="nonzero"/></clipPath></defs><g clip-path="url(#71e960c125)"><path fill="#2c2c2c" d="M 51.742188 611.429688 C 51.742188 611.429688 62.203125 631.320312 85.4375 615.886719 C 85.4375 615.886719 236.347656 478.871094 240.203125 478.871094 C 240.203125 478.871094 222.542969 510.9375 261.726562 464.464844 C 261.726562 464.464844 236.347656 498.761719 294.308594 437.972656 C 294.308594 437.972656 285.992188 469.4375 305.367188 430.769531 C 305.367188 430.769531 331.347656 446.203125 335.722656 444.574219 C 335.722656 444.574219 325.261719 454.519531 332.976562 452.890625 C 332.976562 452.890625 335.207031 461.722656 343.4375 455.632812 C 343.4375 455.632812 346.78125 458.378906 343.953125 462.234375 C 343.953125 462.234375 338.980469 464.980469 341.210938 472.183594 C 341.210938 472.183594 355.957031 535.890625 339.496094 558.355469 C 339.152344 558.183594 338.808594 558.011719 338.464844 557.839844 C 328.605469 555.09375 318.746094 552.4375 308.796875 550.035156 C 301.082031 548.152344 293.363281 546.351562 285.5625 544.890625 C 281.617188 544.121094 268.929688 539.746094 265.414062 542.75 C 263.441406 544.464844 265.5 544.207031 265.667969 546.691406 C 266.011719 552.007812 266.269531 552.007812 264.210938 556.640625 C 258.125 570.1875 267.640625 570.015625 275.875 576.960938 C 271.757812 577.644531 270.300781 581.847656 274.328125 584.503906 C 266.699219 589.136719 258.46875 580.476562 251.265625 583.992188 C 252.292969 585.878906 255.980469 589.394531 258.210938 589.394531 C 253.324219 589.308594 246.550781 588.621094 242.175781 590.9375 C 248.09375 596.167969 260.441406 597.023438 267.898438 598.910156 C 279.558594 601.738281 291.222656 604.484375 302.882812 607.140625 C 306.054688 607.828125 309.3125 608.769531 312.570312 609.199219 C 317.203125 609.886719 321.746094 610.65625 326.289062 611.601562 C 326.632812 612.285156 326.890625 612.972656 327.320312 613.742188 C 327.0625 613.144531 326.804688 612.457031 326.71875 611.6875 C 348.410156 615.972656 369.160156 622.746094 390.167969 630.550781 C 403.457031 635.523438 417.519531 639.808594 431.582031 641.78125 C 437.925781 642.640625 444.617188 643.152344 450.875 641.265625 C 458.589844 638.953125 462.105469 632.691406 470.679688 632.007812 C 480.027344 631.234375 489.460938 633.378906 498.804688 631.835938 C 508.066406 630.292969 509.09375 621.71875 517.410156 619.230469 C 525.386719 616.832031 533.359375 614.601562 541.332031 612.199219 C 548.191406 617.859375 557.710938 621.890625 559.253906 606.457031 C 561.65625 605.597656 564.054688 604.742188 566.542969 603.882812 C 574.429688 608 575.546875 603.796875 575.375 600.453125 C 576.230469 600.109375 577.089844 599.769531 577.945312 599.425781 C 591.152344 593.765625 603.324219 593.25 617.472656 590.679688 C 625.191406 589.308594 631.449219 587.421875 638.222656 583.648438 C 644.054688 580.476562 650.226562 578.160156 656.574219 576.445312 C 663.515625 574.558594 687.78125 577.21875 682.296875 564.011719 C 678.953125 556.039062 666.003906 560.070312 658.972656 559.554688 C 638.996094 558.011719 688.726562 548.152344 670.632812 545.0625 C 666.777344 544.378906 657.257812 547.035156 654.773438 543.863281 C 652.199219 540.519531 656.058594 536.402344 657.773438 533.746094 C 652.800781 538.03125 645.167969 538.460938 638.910156 539.660156 C 635.308594 540.347656 631.878906 540.863281 628.621094 542.664062 C 626.476562 543.863281 623.902344 547.464844 621.589844 547.894531 C 617.558594 548.75 618.589844 546.949219 620.304688 544.804688 C 620.558594 544.464844 620.902344 544.035156 621.246094 543.605469 C 624.074219 539.917969 631.878906 524.3125 637.878906 525.429688 C 626.21875 523.113281 612.15625 527.828125 601.183594 531.601562 C 583.605469 537.691406 567.914062 546.949219 551.109375 554.753906 C 551.109375 554.753906 550.851562 554.839844 550.335938 555.09375 C 550.421875 555.011719 550.507812 554.839844 550.507812 554.753906 C 550.59375 554.582031 484.398438 516.339844 479.253906 513.253906 C 471.195312 508.367188 461.765625 503.820312 456.449219 495.589844 C 435.699219 463.351562 509.523438 451.691406 525.898438 444.316406 C 559.082031 429.394531 589.179688 411.304688 613.957031 384.125 C 639.851562 355.65625 651.769531 319.902344 649.113281 281.488281 C 656.144531 281.488281 662.746094 277.117188 666.089844 270.773438 C 674.492188 271.113281 682.296875 268.457031 683.667969 260.226562 C 686.238281 245.304688 669.519531 231.585938 656.488281 230.472656 C 654.34375 230.300781 652.371094 230.730469 650.570312 231.671875 C 651.683594 224.214844 653.140625 216.839844 655.113281 209.808594 C 659.402344 194.203125 666.433594 178.082031 676.121094 165.050781 C 687.097656 150.304688 702.273438 144.730469 720.109375 142.929688 C 724.824219 142.5 729.625 142.242188 734.425781 141.898438 C 732.625 141.984375 726.625 134.871094 724.652344 133.753906 C 720.878906 131.441406 716.59375 130.066406 712.304688 129.125 C 691.726562 124.835938 671.492188 138.726562 650.828125 132.898438 C 630.164062 126.980469 606.5 132.984375 588.320312 143.359375 C 568.085938 154.847656 558.566406 174.738281 543.5625 191.375 C 528.988281 207.578125 509.695312 217.953125 488.515625 222.753906 C 480.199219 224.640625 473.167969 228.671875 467.59375 235.359375 C 453.960938 245.304688 437.15625 249.679688 421.292969 254.566406 C 408.089844 258.597656 395.054688 263.484375 382.195312 268.371094 C 351.925781 279.945312 322.089844 292.894531 293.363281 307.898438 C 271.414062 319.386719 250.921875 333.707031 228.457031 344.339844 C 220.226562 348.199219 212.082031 352.054688 204.019531 356.257812 C 200.589844 358.058594 188.84375 362.515625 187.472656 366.632812 C 185.84375 371.433594 194.933594 368.949219 198.449219 368.519531 C 194.332031 370.664062 181.726562 375.980469 181.042969 381.464844 C 180.441406 386.78125 187.730469 385.324219 191.84375 385.582031 C 191.84375 385.582031 252.121094 389.441406 254.265625 387.210938 C 254.265625 387.210938 49.253906 599.9375 44.28125 608.769531 C 44.625 608.683594 33.5625 625.320312 51.742188 611.429688 Z M 628.707031 549.609375 C 628.707031 549.609375 636.421875 545.75 637.539062 553.464844 C 638.652344 561.183594 635.90625 556.210938 630.933594 556.210938 C 625.960938 556.210938 606.070312 570.53125 628.707031 549.609375 Z M 553.167969 608.511719 C 553.335938 608.429688 553.59375 608.429688 553.765625 608.34375 C 553.59375 608.429688 553.335938 608.511719 553.167969 608.511719 Z M 502.835938 570.613281 C 505.40625 567.269531 509.609375 564.957031 515.953125 564.527344 C 515.953125 564.527344 521.269531 564.355469 527.871094 563.414062 C 520.753906 565.726562 512.351562 568.300781 502.835938 570.613281 Z M 355.699219 565.8125 C 357.070312 565.554688 358.445312 565.386719 359.902344 565.386719 C 372.335938 564.957031 383.910156 571.128906 395.054688 575.675781 C 398.570312 577.132812 399.945312 578.675781 399.171875 573.445312 C 398.3125 568.042969 387.683594 561.871094 383.652344 559.039062 C 378.9375 555.695312 375.59375 552.523438 372.503906 547.636719 C 364.445312 535.117188 359.988281 523.027344 358.445312 508.109375 C 358.101562 505.023438 359.472656 474.753906 360.160156 475.011719 C 360.160156 475.011719 366.761719 477.753906 369.589844 463.4375 C 369.589844 463.4375 371.648438 488.816406 373.792969 462.835938 C 373.878906 461.980469 373.964844 461.121094 373.964844 460.09375 C 373.964844 460.09375 381.679688 451.261719 381.679688 458.464844 C 381.679688 458.464844 376.707031 466.78125 389.996094 463.949219 C 389.996094 463.949219 374.5625 480.5 399.945312 469.4375 C 399.945312 469.4375 396.085938 484.871094 409.375 470.554688 C 409.375 470.554688 408.433594 493.789062 412.203125 476.554688 C 411.003906 483.414062 410.320312 493.960938 419.835938 483.328125 C 416.148438 487.53125 419.320312 496.875 421.894531 500.648438 C 428.839844 511.023438 443.5 512.566406 454.21875 516.941406 C 473.683594 524.914062 497.089844 534.859375 513.296875 548.578125 C 513.296875 548.578125 524.871094 558.523438 509.953125 556.296875 C 509.953125 556.296875 486.371094 553.125 488.34375 573.960938 C 450.789062 581.332031 401.660156 584.25 355.699219 565.8125 Z M 355.699219 565.8125 " fill-opacity="1" fill-rule="nonzero"/></g></svg>